/* XPM */
static char *adnetcoin16[] = {
/* columns rows colors chars-per-pixel */
"16 16 85 1 ",
"  c None",
". c #D89F11",
"X c #D8A013",
"o c #D9A116",
"O c #D9A117",
"+ c #D9A218",
"@ c #D9A219",
"# c #D9A31A",
"$ c #D9A31B",
"% c #D9A31C",
"& c #DBA51C",
"* c #DAA41D",
"= c #DAA41E",
"- c #DBA51E",
"; c #DAA51F",
": c #DBA51F",
"> c #DDA71D",
", c #DFA71C",
"< c #DFA81D",
"1 c #E3AB1E",
"2 c #D9A520",
"3 c goldenrod",
"4 c #DBA520",
"5 c #DAA521",
"6 c #DBA620",
"7 c #DAA622",
"8 c #DCA620",
"9 c #DDA720",
"0 c #DDA721",
"q c #DDA820",
"w c #DEA820",
"e c #DCAB2E",
"r c #DDAC31",
"t c #DDAC32",
"y c #DDAD34",
"u c #DEAF38",
"i c #DFB03B",
"p c #DFB03C",
"a c #DFB13D",
"s c #E0AA21",
"d c #E1AB21",
"f c #E2AB21",
"g c #E3AC21",
"h c #E5B02C",
"j c #E5B12D",
"k c #E5B63F",
"l c #DFB342",
"z c #E0B342",
"x c #E0B343",
"c c #E0B444",
"v c #E1B64A",
"b c #E1B64B",
"n c #E3BA54",
"m c #E4BF5F",
"M c #E5C062",
"N c #E8C773",
"B c #E9C97A",
"V c #E9CA7C",
"C c #EBCF88",
"Z c #EDD495",
"A c #EFD79D",
"S c #F0DAA2",
"D c #F0DAA3",
"F c #F0DAA4",
"G c #F0DBA5",
"H c #F0DBA6",
"J c #F2E0B3",
"K c #F4E3BB",
"L c #F5E6C1",
"P c #F5E8C5",
"I c #F5E8C6",
"U c #F6E9C9",
"Y c #F9F0DA",
"T c #FAF3E2",
"R c #FBF6E9",
"E c #FCF8EC",
"W c #FCF8ED",
"Q c #FCF8EE",
"! c #FDF9F1",
"~ c #FDFAF3",
"^ c #FEFCF8",
"/ c #FEFDF9",
"( c #FEFDFA",
") c #FFFFFE",
"_ c white",
/* pixels */
"       88       ",
"    q9d<,d9q    ",
"   wg8$nM#8gw   ",
"  8s33%LY7;3s8  ",
" 3g33$b/_m@33g3 ",
" 5633+H__K$3365 ",
" f33*iW!_^v$33f ",
"4s33OZUN)_S+33s4",
"4s3=eRYJ__Qu*3s2",
" f3oVEFGP__Co3f ",
" ;:tTA.Xa~_Ty-; ",
" *jU(TB$D!^/Ih* ",
"  0klcr=pxzlk0  ",
"   >1&=3*%&1>   ",
"    q9dssd9q    ",
"       88       "
};
