/* XPM */
static char *adnetcoin128[] = {
/* columns rows colors chars-per-pixel */
"128 128 48 1 ",
"  c None",
". c #D79D0E",
"X c #D79E10",
"o c #D8A116",
"O c #D9A41C",
"+ c #DAA520",
"@ c #DEA821",
"# c #DCA92B",
"$ c #DDAD34",
"% c #DEAF39",
"& c #DFB13C",
"* c #E2AB21",
"= c #DFB241",
"- c #E0B445",
"; c #E1B64A",
": c #E2B84F",
"> c #E3BA54",
", c #E4BD5C",
"< c #E5BF60",
"1 c #E6C165",
"2 c #E7C46C",
"3 c #E7C571",
"4 c #E8C773",
"5 c #E8C876",
"6 c #E9CA7B",
"7 c #EBCE84",
"8 c #EBCF88",
"9 c #ECD18C",
"0 c #EDD393",
"q c #EED699",
"w c #EFD89D",
"e c #EFD9A2",
"r c #F0DBA5",
"t c #F1DDAC",
"y c #F3E1B5",
"u c #F4E4BC",
"i c #F5E7C2",
"p c #F6E8C6",
"a c #F7EACB",
"s c #F7ECD1",
"d c #F8EED5",
"f c #F9EFD8",
"g c #F9F1DD",
"h c #FAF4E4",
"j c #FCF7EB",
"k c #FCF8EE",
"l c #FDFBF4",
"z c #FFFFFF",
/* pixels */
"                                                            @@+++++O                                                            ",
"                                                    @@+@++**@@@+++@@*@@@@@+@                                                    ",
"                                                @@O@*@@@++++++++++++++++O@@*@O@@                                                ",
"                                            @@@@*@@+@++O++++++++++++++++++@+@@@@*@@O                                            ",
"                                          @@@@++++++@+++++++++++++++++++++++@+++++@*@@                                          ",
"                                       @@*@+O@++++++++++++++++++++++++++++++++++++++@@*+@                                       ",
"                                     @+@@+++++++++++++++++++++++++++++++++++++++++++++++*+@                                     ",
"                                   @**++@+++++++++++++++++++++++++++++++++++++++++++++++@@@@@                                   ",
"                                 +@@++++++++++++++++++++++++++++++++++++++++++++++++++++++++@@+                                 ",
"                               @++++++++++++++++++++++++++++++++++++++++++++++++++++++++++++@+@+@                               ",
"                              @*+++++++++++++++++++++++++++++++++++O++++++++++++++++++++++++++++*O                              ",
"                            @*@O++++++++++++++++++++++++++++++++++++++++++++++++++++++++++++++++@@*@                            ",
"                           @*O++++++++++++++++++++++++++++++++++++++++++++++++++++++++++++++++++@@+@@                           ",
"                         @@@@@++++++++++++++++++++++++++++++++++++++++++++++++++++++++++++++++++++++@@@                         ",
"                        @*@+++++++++++++++++++++++++++++++++++++++++++++++++++++++++++++++++++++++++O@*@                        ",
"                       @*O+++++++++++++++++++++++++++++++++++OXO+XX+++++++++++++++++++++++++++++++++@++@@                       ",
"                      @@O@+++++++++++++++O#O++++++++++++++++++,111<+++++++++++++++++++++++++++++++++++++*@                      ",
"                     @@@++++++++++++O++++++O++++++++++++++++O>zzzzz<O+++++++++++++++++++++++++++++++++++@@@                     ",
"                    @@++++++++++++++++++O#++++++++++++++++++OyzzzzziOO++++++++++++++++++++++++++++++++++++O@                    ",
"                   @++++++++++++++O+++++OO+++++++++++++++++O=lzzzzzz:O+++++++++++++++++++++++++++++O++++++@@@                   ",
"                  @O@++++++++++++++++++++++++++++++++++++++OwzzzzzzztO++++++++++++++++++++++O+++++++++++++++@@                  ",
"                 @@+++++++++++++++++++++++++++++++++++++++O$jzzzzzzzk%O+++++++++++++++++++++++++++++++++++++O@@                 ",
"                @@+++++++++++++++++++++++OO+++++++++++++++o7zzzzzzzzz0X+++++++++++++++++++++++++++++++++++++++@@                ",
"               @*@+++++++++++++++O++++++O##++++++++++++++O#hzzzzzzzzzh$++++++++++++++++++++++++++++++++++++++++@@               ",
"              @@+++++++++++++++++++++++++++++++++++++++++O3zzzzzzzzzzz5X++++++++++++++++++++++++++++++++++++++++@@              ",
"             @*+++++++++++++++++++++++++++++++++++++++++++szzzzzzzzzzzs+++++++++++++++++++++++++++++++++++++++++O*@             ",
"             @@+++++++++++++++++++++++++++++++++++++++++o>zzzzzzzzzzzzz,O+++++++++++++++++++++++++++++++++++++++@@@             ",
"            @@+++++++++O++++++++++++++++++++++++++++++++OuzzzzzzzzzzzzzyO+++++++++++++++++++++++++++++++++++++++++@@            ",
"           @@++++++++++++++++++++++++++++++++++++++++++O=zzzzzzzzzzzzzzz=O+++++++++++++++++++++++++++++++++++++++++@@           ",
"           *+++++++++++++++++++++++++++++++++++++++++++oezzzzzzzzzzzzzzzeO++++++++++++++++++++++++++++++++++++++++++@           ",
"          +@+++++++++++++++++++++++++++++++++++++++++OO$lzzzzzzzzzzzzzzzj$O+++++++++++++++++++++++++++++++++++++++++O@          ",
"         +@++++++O++++++++++++++++++++++++++++++++++++o0zzzzzzzzzzzzzzzzz8OO++++++++++++++++++++++++++++++++++++++++@*@         ",
"         @+++++++++++++++++++++++++++++++++++++++++++O#hzzzzzzzzzzzzzzzzzg#O+++++++++++++++++++++++++++++++++++++++++++         ",
"        @*+++++++++++++++++++++++++++++++++O+++++++++O6zzzzzzzzzzzzzzzzzzz1O++++++++++++++++++++++++++++++++++++++++++#+        ",
"        @+++++++++++++++++++++++++++++++++++++++++++O+dzzzzzzzzzzzzzzzzzzzaOO+++++++++++++++++++++++++++++++++++++++++++        ",
"       O@@++++++++++++++++++++++++++++++++++++++++++O,zzzzzzzzzzzzzzzzzzzzz:O+++++++++++++++++++++++++++++++++++++++++++@       ",
"       @+++++++++++++++++++++++++++++++++++++++++++OOuzzzzzzzzzzzzzzzzzzzzzyOO++++++++++++++++++++++++++++++++++++++++++@       ",
"      @@+++++++++++++++++++++++++++++++++O+++++++++O=zzzzzzzzzzzzzzzzzzzzzzk=O++++++++++++++++++++++O+++++++++++++++++++*@      ",
"      @O++++++++++++++++++++++++++++++++++++++++++OOyzzzzzzzzzzzzzzzzzzzzzzz0O++++++++++++++++++++++++++++++++++++++++++@@      ",
"     @*@++++++++++++++++++++++++++++++++++++++++++O&lzzzzzzzzzzzzzzzzzzzzzzzj$O+++++++++++++++++++++++++++++++++++++++++@@@     ",
"     @++++++++++++++++++++++++++++++++++++++++++++O0zzzzzzzzzzzzzzzzzzzzzzzzz6O++++++++++++++++++++++++++++++++++++++++++@@     ",
"     @+++++++++++++++++++++++++++++++++++++++++++O#jzzzzzzzzzzzzzzzzzzzzzzzzzd+O++++++++++++++O+++++O+++++++++++++++++++++*     ",
"    O@+++++++++++++++++++++++++++++++++++++++++++O6zzzzzzzzzzzzzzzzzzzzzzzzzzz<O+++++++++++++++++O++++++++++++++++++++++++@O    ",
"    @@++++++++++++++++++++++++++++++++++++++++++++dzzzzzzzzzzzzzzzzzzzzzzzzzzzi++++++++++++++++++++++++++++++++++++++++++++@    ",
"   @@@++++++++++++++++++++++++++++++++++++++++++O2zzzzzzzzzzzzzzzzzzzzzzzzzzzzz:O+++++++++++++++++++++++++++++++++++++++++@@@   ",
"   @@+++++++++++++++++++++++++++++++++++++++++++Opzzzzzzzzzzzzzzzzzzzzzzzzzzzzzto++++++++++++++++++++++++++++++++++++++++++@@   ",
"   @+++++++++++++++++++++++++++++++++++++++++++O:zzzzzzzzzzzzzzzzzzzzzzzzzzzzzzk&O+++++++++++++++++++++++++++++++++++++++++@@   ",
"   @+++++++++++++++++++++++++++++++++++++++++OOOyzzzzzzzzzzzzzzzzzzzzzzzzzzzzzzz7o++++++++++++++++++++++++++O+++++++++++++O@*   ",
"  +@@+++++++++++++++++++++++++++++++++++++++++o=zzzzzzzzzzzzzzzzzzzzzzzzzzzzzzzzh#++++++++++++++++++++++++++++++++++++++++++@+  ",
"  @@++++++++++++++++++++++++++++++++++++++++++owzzzzzzzzzzzzzzzzzzzzzzzzzzzzzzzzz5OO++++++++++++++++++++++++++++++++++++++++@+  ",
"  @O++++++++++++++++++++++++++++++++++++++++++$jzzzzzzzzzzzzzzzzzzzzzzzzzzzzzzzzzs+O++++++++++++++++++++++++++++++++++++++++@@  ",
"  @@+++++++++++++++O+++++++++++++++++++++++++o7zzzzzzzzzzzzzzzzzzzzzzzzzzzzzzzzzzz<o+++++++++++++++++++++++++O++++++++++++++O*  ",
" +@+++++++++++++++O+++++++++++++++++++++++++O#dzzzzzzzzzzyzzzzzzzzzzzzzzzzzzzzzzzzuO++++++++++++++++O++++++++++++++++++++++++*@ ",
" @*++++++++O++++++++++++++++++++++++++++++++o2zzzzzzzzzzp#jzzzzzzzzzzzzzzzzzzzzzzzz=X++++++++++++++O+++++++++++++++++++++++++@@ ",
" @@+++++++++++++++++++++++++++++++++++++++++Oszzzzzzzzzz2.qzzzzzzzzzzzzzzzzzzzzzzzzeX++++++++++++++++++++++++++++++++++++++++@+ ",
" +@++++++++++++++++++++++++++++++++++++++++o>zzzzzzzzzzd#O=lzzzzzzzzzzzzzzzzzzzzzzzk&++++++++++++++++++++++++++++++++++++++++@@ ",
" O@@+++++++++++++++++++++++++++++++++++++++oyzzzzzzzzzz7o+Oyzzzzzzzzzzzzzzzzzzzzzzzz7O+++++++++++++++++++++++++++++++++++++++++ ",
" @++++++++++++++++++++++++++++++++++++++++O;lzzzzzzzzzj#O+O>zzzzzzzzzzzzzzzzzzzzzzzzg++++++++++++++++++++++++O++++++++++++++++@ ",
" @++++++++++++O+++++++++++++++++++++++++++Oezzzzzzzzzzqo++++szzzzzzzzzzzzzzzzzzzzzzzz3o+++++++++++++++++++++++++++++++++++++@O* ",
" @+++++++++++++++++++++++++++++++++++++++O%kzzzzzzzzzl=o+++o2zzzzzzzzzzzzzzzzzzzzzzzza+O+++++++++++++++++++++++++++++++++++++@* ",
"@@+++++++++++++++++++++++++++++++++++++++X8zzzzzzzzzzto#+++O#hzzzzzzzzzzzzzzzzzzzzzzzz>O++++++++++++++++++++++++++++++++++++++@@",
"@@+++++++++++++++++++++++++++++++++++++++#jlzzzzzzzzz:o+++++o0zzzzzzzzzzzzzzzzzzzzzzzlyO+++++++++++++O++++++++++++++++++++++++@+",
"+@O+++++++++++++++++++++++++++++++++++++O5llzzzzzzzzio++++++o&lzzzzzzzzzzzzzzzzzzzzzzzl=++++++++++++++++++++++++++++++++++++++++",
"+++++++++++++++++++++++++++++++++++++++O+sllzzzzzzzz1o+++++++otzzzzzzzzzzzzzzzzzzzzzzzz0O+++++++++++++++++++++++++++++++++++++++",
"+++++++++++++++++++++++++++++++++++++++O,zzzzzzzzzzs+++++++++O:zzzzzzzzzzzzzzzzzzzzzzzzj$OOO++++++++++++++++++++++++++++++++++++",
"++++++++++++++++++++++++++++++++++++++++uzzzzzzzzzz6O+++++++++Opzzzzzzzzzzzzzzzzzzzzzzzz7o++++++++++++++++++++++++++++++++++++++",
"++++++++++++++++++++++++++++++O+++++++O=zzzzzzzzzzg#XOoXoooooX.>zzzzzzzzzzzzzzzzzzzzzzzzf+++++++++++++++++++++++++++++++++++++++",
"++++++++++++++++++++++++++O+++++++++++otzzzzzzzzzzs0q000000q000qlzzzzzzzzzzzzzzzzzzzzzzzz1O+++++++++++++++++++++++++++++++++++++",
" *@++++++++++++++++++++++OO++++++++++O&lzzzzzzzzzzzzzzzzzzzzzzzzzzzzzzzzzzzzzzzzzzzzzzzzzp++++++++++++++++++++++++++++++++++++@ ",
" @++++++++++++++++++++++O#+++++++++++O0zzzzzzzzzzzzzzzzzzzzzzzzzzzzzzzzzzzzzzzzzzzzzzzzzzz=O++++++++++++++++++++++++++++++++++* ",
" @++++++++++++++++++++++++++++O+++++O#hzzzzzzzzzzzzzzzzzzzzzzzzzzzzzzzzzzzzzzzzzzzzzzzzzzzto++++++++++++++++++++++++++++++++++@ ",
" +++++++++++++++++++++++++#O++++++++o6zzzzzzzzzzzzzzzzzzzzzzzzzzzzzzzzzzzzzzzzzzzzzzzzzzzzl&O++++++++++++++++++++++++++++++++@@ ",
" @@++++++++++++++++++++++++++++++++O+szzzzzzzzzzzzzzzzzzzzzzzzzzzzzzzzzzzzzzzzzzzzzzzzzzzzz0o++++++++++++++++++++++++++++++++@O ",
" +@++++++++++++++++++++++++++++++++O2zzzzzzzzzzzzzzzzzzzzzzzzzzzzzzzzzzzzzzzzzzzzzzzzzzzzzzh#O+++++++++++++++++++++++++++++++@@ ",
" @@+++++++++++++++++++++++++++++++OOizzzzzzzzzzzzzzzzzzzzzzzzzzzzzzzzzzzzzzzzzzzzzzzzzzzzzzz6O++++++++++++++++++++++++++++++@*@ ",
" @*@++++++++++++++++++++++++++++++O:zzzzzzzzzzzzzzzzzzzzzzzzzzzzzzzzzzzzzzzzzzzzzzzzzzzzzzzzs++++++++++++++++++++++++++++++++@@ ",
"  @++++++++++++++++++++++++++++++OOtzzzzzzzzzzzzzzzzzzzzzzzzzzzzzzzzzzzzzzzzzzzzzzzzzzzzzzzzz,o++++++++++++++++++++++++++++++@  ",
"  +++++++++++++++++++++++++++++++O=lzzzzzzzzzj7666666666666666666663yzzzzzzzzzzzzzzzzzzzzzzzzuOO++++++++++++++++++++++++++++@+  ",
"  @@+++++++++++++++++++++++++++++OqzzzzzzzzzzeXoXoooooXOoooOoXOXOoOo&lzzzzzzzzzzzzzzzzzzzzzzzz=O++++++++++++++++++++++++++++@@  ",
"  +@++++++++++++++++++++++++++++O#jzzzzzzzzzz=O+++++++++++++++++O+OOOtzzzzzzzzzzzzzzzzzzzzzzzzeo++++++++++++++++++++++++++@O@@  ",
"   *++++++++++++++++++++++++++++O7zzzzzzzzzzyO++++++++++++++++++++++O:zzzzzzzzzzzzzzzzzzzzzzzzl$++++++++++++++++++++++++++++@   ",
"   @++++++++++++++++++++++++++++#gzzzzzzzzzz>O++++++++++++++++++++++OOpzzzzzzzzzzzzzzzzzzzzzzzz8X++++++++++++++++++++++++++@@   ",
"   @@@+++++++++++++++++++++++++O6zzzzzzzzzzp+O++++++++++++++++++++++OO2zzzzzzzzzzzzzzzzzzzzzzzzh$++++++++++++++++++++++++++@@   ",
"   O@++++++++++++++++++++++++++#hzzzzzzzzzz3O++++++++++++++++++++++++++gzzzzzzzzzzzzzzzzzzzzzzzz7X++++++++++++++++++O++++++@@   ",
"    @@++++++++++++++++++++++++O7zzzzzzzzzzj#O+++++++++++++++++++++++++o8zzzzzzzzzzzzzzzzzzzzzzzzg+++++++++++++++++++++++++@@    ",
"    @@+++++++++++++++++++++++O$jzzzzzzzzzzyOO+++++++++++++++++++++++++O$kzzzzzzzzzzzzzzzzzzzzzzzz8O+++++++++++++++++++++++@O    ",
"     *@++++++++++++++++++++++Otzzzzzzzzzzz7o+++++++++++++++++++++++++++Otzzzzzzzzzzzzzzzzzzzzzzzzj&X++++++++++++++++++++++*     ",
"     @@O++++++++++++++++++++o2zzzzzzzzzzzz>O+++++++++++++++++++++++++OOO:zzzzzzzzzzzzzzzzzzzzzzzzzeO+++++++++++++++++++++@@     ",
"     @@+++++++++++++++++++Oo=kzzzzzzzzzzzz1oOO+++++++++++++++++++++++++O+szzzzzzzzzzzzzzzzzzzzzzzzz,X++++++++++++++++++++@@     ",
"      @@++++++++++++++++OoO2lzzzzzzzzzzzzzu#oOOOOO+O+++++++++++++++OOOOO.0zzzzzzzzzzzzzzzzzzzzzzzzzh=OOO++++++++++++++++@@      ",
"      @@+++++++++++++OO+&3izzzzzzzzzzzzzzzzge7>:&$#O+O++++++++++++O#&$&=1azzzzzzzzzzzzzzzzzzzzzzzzzzj0=&+++O++++++++++++@@      ",
"       *++++++++++++O3ihzzzzzzzzzzzzzzzzzzzzzzzzljga&O+++++++++++O$alllzzzzzzzzzzzzzzzzzzzzzzzzzzzzzzzzlhs5O+++++++++++@@       ",
"       O@+++++++++O+Oezzzzzzzzzzzzzzzzzzzzzzzzzzzzzz&O++++++++++O$azzzzzzzzzzzzzzzzzzzzzzzzzzzzzzzzzzzzzzz8o+++++++++++@O       ",
"        @+++++++++++owzzzzzzzzzzzzzzzzzzzzzzzzzzzzzl&O+++++++++O$szzzzzzzzzzzzzzzzzzzzzzzzzzzzzzzzzzzzzzzz7o+++++++++++@        ",
"        +@++++++++++oezzzzzzzzzzzzzzzzzzzzzzzzzzzzzk&O++++++++OO,zzzzzzzzzzzzzzzzzzzzzzzzzzzzzzzzzzzzzzzzz8X++++++++++@@        ",
"         @++++++++++oezzzzzzzzzzzzzzzzzzzzzzzzzzzzzz&O+++++++++O,zzzzzzzzzzzzzzzzzzzzzzzzzzzzzzzzzzzzzzzzz8X+++++++++@@         ",
"         @*@+++++++++=jzzzzzzzzzzzzzzzzzzzzzzzzzzzz0+++++++++++O+uzzzzzzzzzzzzzzzzzzzzzzzzzzzzzzzzzzzzzzzs%O++++++++@@O         ",
"          @O+++++++++X=hzzzzzzzzzzzzzzzzzzzzzzzzzz0O++++++++++++O+yzzzzzzzzzzzzzzzzzzzzzzzzzzzzzzzzzzzzzs%O+++++++++@@          ",
"           @++++++++++O=upppppppiaaaiaaaiiiaaiiai0OO+++++++++++++O+tppppppiiiaiaipaiiiiappipiaaapppppppy%+++++++++++@           ",
"           @@@+++++++++OOOOOOOOOOOOOX+X+OOOOOOOOOOO+++++++++++++++OOOOOOOOOOOOOOOOOOOOOOOOOOOO+XOOOOOOOOX++++++++++@@           ",
"            @@++++++++++++++++++++++++++++++++++++++++++++++++++++++++++++++++++++++++++++++++++++++++++++++++++++@@            ",
"             @+@+++++++++++++++++++++++++++++++++++++++++++++++++++++++++++++++++++++++++++++++++++++++++++++++++@@             ",
"             @*O+++++++++++++++++++++++++++++++++++++++++++++++++++++++++++++++++++++++++++++++++++++++++++++++++*@             ",
"              @*++++++++++++++++++O++++++++++++++++++++++++++++++++++++++++++++++++++++++++++++++++++++++++++++@@+              ",
"               @@++++++++++++++++++++++++++++++++++++++++++++++++++++++++++++++++++++++++++++++++++++++++++++++@@               ",
"                @@+++++++++++++++++++++++++++++++++++++++++++++++++++++++++++++++++++++++++++++++++++++++++++@@@                ",
"                 @@++++++O+++++++O++++++++++++++++++++++++++++++++++++++++++++++++++++++++++++++++++++++++++@O@                 ",
"                  @+++++++++++++++++++++++++++++++++++++++++++++++++++++++++++++++++++++++++++++++++++++++++@@                  ",
"                   @@@O+++++++++++++++++++++++++++++++++++++++++++++++++++++++++++++++++++++++++++++++++++O@@                   ",
"                    @@++++++++++++++++++++++++++++++++++++++++++++++++++++++++++++++++++++++++++++++++++++@@                    ",
"                     @+++++++++++++++++++++++O+++++++++++++++++++++++++++++++++++++++++++++++++++++++++++@@                     ",
"                      @@+++++++++++++++++++O+++++++++++++++++++++++++++++++++++++++++++++++++++++++++++++@                      ",
"                       @*@+++++++++++++++++++++++++++++++++++++++++++++++++++++++++++++++++++++++++++O@*@                       ",
"                        @*@@+++++++++++++++++++++++++++++++++++++++++++++++++++++++++++++++++++++++++@*@                        ",
"                         @O@++++++++++++++++++++++++++++++++++++++++++++++++++++++++++++++++++++++++@@@                         ",
"                           @*+++++++++++++++++++++++++++++++++++++++++++++++++++++++++++++++++++++@*@                           ",
"                            @*@O+++++++++++++++++++++++++++++++++++++++++++++++++++++++++++O+++++O*@                            ",
"                              @*@@+++++++++++++++++++++++++++++++++++++++++++++++++++++++++++++@@@                              ",
"                               @@@++++++++++++++++++++++++++++++++++++++++++++++++++++++++++++@@@                               ",
"                                 @@@++++++++++++++++++++++++++++++++++++++++++++++++++++++++@@@                                 ",
"                                   @**@O++++++++++++++++++++++++++++++++++++++++++++++@+O@**@                                   ",
"                                     @@*@+++++++++++++++++++++++++++++++++++++++++++++O@@@@                                     ",
"                                       @O@@@+++++++++++++++++++++O++++++++++++++++@@+@@@@                                       ",
"                                          @@@@@@+++++++++++++++++++++++++++++++++@@*@@                                          ",
"                                            O@@*@@@@++++O++++++++++++++++@++++++*@@O                                            ",
"                                                @@O*@@@@@+++++++++++@@++@@**++++                                                ",
"                                                    @@++@@**@@++++@@**@@++@@                                                    ",
"                                                            ++++O+++                                                            "
};
