/* XPM */
static char *adnetcoin32[] = {
/* columns rows colors chars-per-pixel */
"32 32 126 2 ",
"   c None",
".  c #D69C0A",
"X  c #D79F10",
"o  c #D79F11",
"O  c #D89F12",
"+  c #D8A013",
"@  c #D8A115",
"#  c #D8A117",
"$  c #D9A117",
"%  c #D9A217",
"&  c #D9A218",
"*  c #D9A219",
"=  c #D9A31A",
"-  c #D9A31B",
";  c #D9A31C",
":  c #D9A31D",
">  c #D9A41C",
",  c #D9A41D",
"<  c #DAA41D",
"1  c #D9A51F",
"2  c #DAA41E",
"3  c #DAA51E",
"4  c #DAA51F",
"5  c #DCA61F",
"6  c #DCA81F",
"7  c #DFA81F",
"8  c #D9A520",
"9  c goldenrod",
"0  c #DBA520",
"q  c #DAA620",
"w  c #DBA620",
"e  c #DBA621",
"r  c #DAA622",
"t  c #DCA620",
"y  c #DCA720",
"u  c #DDA720",
"i  c #DDA721",
"p  c #DBA724",
"a  c #DDA820",
"s  c #DEA820",
"d  c #DFA820",
"f  c #DEA821",
"g  c #DFA821",
"h  c #DFA921",
"j  c #DBA829",
"k  c #DBA929",
"l  c #DCA92B",
"z  c #DCAA2C",
"x  c #DCAA2D",
"c  c #DCAB2E",
"v  c #DDAC31",
"b  c #DEAE36",
"n  c #DEB03C",
"m  c #DFB03C",
"M  c #DFB13E",
"N  c #DFB13F",
"B  c #E0AA21",
"V  c #E3AC21",
"C  c #E4AC21",
"Z  c #E0B343",
"A  c #E0B444",
"S  c #E1B548",
"D  c #E1B74C",
"F  c #E2B84F",
"G  c #E2B850",
"H  c #E2B951",
"J  c #E3BC59",
"K  c #E4BD5C",
"L  c #E4BE5E",
"P  c #E5BF5F",
"I  c #E5BF60",
"U  c #E5C063",
"Y  c #E6C165",
"T  c #E6C269",
"R  c #E6C36A",
"E  c #E7C46D",
"W  c #E7C56E",
"Q  c #E8C774",
"!  c #E8C775",
"~  c #E8C876",
"^  c #E9C878",
"/  c #E9CA7B",
"(  c #EACB7D",
")  c #EACB7F",
"_  c #EACC80",
"`  c #EBCE86",
"'  c #EBCF87",
"]  c #ECD18C",
"[  c #ECD18D",
"{  c #EDD290",
"}  c #EDD391",
"|  c #EDD493",
" . c #EED598",
".. c #EFD9A1",
"X. c #F0DCA7",
"o. c #F1DCA9",
"O. c #F2E0B2",
"+. c #F3E2B6",
"@. c #F3E3BA",
"#. c #F4E4BD",
"$. c #F5E6C2",
"%. c #F5E7C3",
"&. c #F6EACB",
"*. c #F7ECD0",
"=. c #F8EED5",
"-. c #F8EED6",
";. c #F9F1DC",
":. c #F9F1DE",
">. c #FAF3E0",
",. c #FAF4E3",
"<. c #FBF4E5",
"1. c #FBF5E5",
"2. c #FBF6E8",
"3. c #FBF6E9",
"4. c #FCF7EA",
"5. c #FCF8EE",
"6. c #FDF9F1",
"7. c #FDFAF2",
"8. c #FEFCF7",
"9. c #FEFCF8",
"0. c #FEFDFA",
"q. c #FEFDFB",
"w. c #FFFEFD",
"e. c #FFFEFE",
"r. c #FFFFFE",
"t. c white",
/* pixels */
"                              0 0                               ",
"                    a y w B V u u V B w y a                     ",
"                6 i V h w 9 9 9 9 9 9 w h V i 6                 ",
"              s V t 9 9 9 9 9 = & 9 9 9 9 9 t V s               ",
"            f h 9 9 9 9 9 9 = T ' 9 9 9 9 9 9 9 h f             ",
"          g y 9 9 9 9 9 9 2 l 1.t.F = 9 9 9 9 9 9 y f           ",
"        f y 9 9 9 9 9 9 9 $ Q t.t.o.& 9 9 9 9 9 9 9 y f         ",
"      t h 9 9 9 9 9 9 9 4 r *.t.t.7.m > 9 9 9 9 9 9 9 h t       ",
"    1 C 9 9 9 9 9 9 9 9 * P r.t.t.t.{ # 9 9 9 9 9 9 9 9 C 1     ",
"    e t 9 9 9 9 9 9 9 9 ; #.t.t.t.t.,.x 2 9 9 9 9 9 9 9 t e     ",
"  4 C 9 9 9 9 9 9 9 9 - D 0.t.t.t.t.t.~ $ 9 9 9 9 9 9 9 9 C 4   ",
"  q h 9 9 9 9 9 9 9 9 & X.t.t.t.t.t.t.*.r 4 9 9 9 9 9 9 9 h q   ",
"  q w 9 9 9 9 9 9 9 > m 6.t.t.t.t.t.t.r.L * 9 9 9 9 9 9 9 w q   ",
"  B 9 9 9 9 9 9 9 9 # } t.8.+.t.t.t.t.t.@.- 9 9 9 9 9 9 9 9 B   ",
"  V 9 9 9 9 9 9 9 2 c 1.t.%.v 4.t.t.t.t.9.S - 9 9 9 9 9 9 9 V   ",
"8 u 9 9 9 9 9 9 9 # / t.e.U .  .t.t.t.t.t...$ 9 9 9 9 9 9 9 u 9 ",
"8 u 9 9 9 9 9 9 4 p -.t.<.G Z E q.t.t.t.t.5.b < 9 9 9 9 9 9 a 8 ",
"  V 9 9 9 9 9 9 & Y t.t.w.q.w.q.r.t.t.t.t.t.' # 9 9 9 9 9 9 V   ",
"  B 9 9 9 9 9 9 , %.t.t.t.t.t.t.t.t.t.t.t.t.:.j 2 9 9 9 9 9 B   ",
"  q w 9 9 9 9 = H q.t.o.J I I P L =.t.t.t.t.t.W & 9 9 9 9 w q   ",
"  q h 9 9 9 9 * O.t.7.m @ * * * o ! t.t.t.t.t.&.4 4 9 9 9 h q   ",
"  w C 9 9 , O K 0.t.$.+ % 4 9 9 = p >.t.t.t.t.r.R X , 9 9 C 4   ",
"    e t < M ] 4.t.t.3.| ^ z 3 , A ( ;.t.t.t.t.t.2.` N < t e     ",
"    1 C $ ! t.t.t.t.t.t.t.n ; : %.t.t.t.t.t.t.t.t.t.W & C 1     ",
"      t 7 l _ [ [ [ [ [ T 4 9 , F [ [ [ [ [ [ [ [ ) k d t       ",
"        f 5 # # # # # # * 9 9 9 - # # # # # # # # # 5 f         ",
"          h y 9 9 9 9 9 9 9 9 9 9 9 9 9 9 9 9 9 9 y h           ",
"            f h 9 9 9 9 9 9 9 9 9 9 9 9 9 9 9 9 h f             ",
"              s V t 9 9 9 9 9 9 9 9 9 9 9 9 t V s               ",
"                6 i V h w 9 9 9 9 9 9 w h V i 6                 ",
"                    a y w B V i i V B w y a                     ",
"                              q q                               "
};
