/* XPM */
static char *adnetcoin64[] = {
/* columns rows colors chars-per-pixel */
"64 64 204 2 ",
"   c None",
".  c #D79E0F",
"X  c #D79E10",
"o  c #D89F12",
"O  c #D8A116",
"+  c #D8A117",
"@  c #D9A117",
"#  c #D8A217",
"$  c #D9A217",
"%  c #D9A118",
"&  c #D8A218",
"*  c #D9A218",
"=  c #D9A219",
"-  c #D9A21A",
";  c #D9A31A",
":  c #D9A31B",
">  c #D9A31C",
",  c #D9A41C",
"<  c #D9A41D",
"1  c #DAA41D",
"2  c #D9A41E",
"3  c #D9A51F",
"4  c #DAA41E",
"5  c #DAA41F",
"6  c #DAA51F",
"7  c #DBA51F",
"8  c #DBA61F",
"9  c #D9A420",
"0  c #DAA420",
"q  c goldenrod",
"w  c #DBA520",
"e  c #DAA521",
"r  c #DAA620",
"t  c #DBA620",
"y  c #DBA621",
"u  c #DAA623",
"i  c #DCA620",
"p  c #DDA620",
"a  c #DCA720",
"s  c #DDA720",
"d  c #DCA621",
"f  c #DDA721",
"g  c #DEA720",
"h  c #DBA725",
"j  c #DDA821",
"k  c #DEA820",
"l  c #DEA821",
"z  c #DFA821",
"x  c #DFA921",
"c  c #DBA826",
"v  c #DBA827",
"b  c #DBA828",
"n  c #DCA92A",
"m  c #DCA92B",
"M  c #DCAA2C",
"N  c #DCAA2D",
"B  c #DCAB2E",
"V  c #DCAB2F",
"C  c #DDAB2F",
"Z  c #DDAB30",
"A  c #DDAC31",
"S  c #DDAC33",
"D  c #DDAD34",
"F  c #DDAD35",
"G  c #DEAE36",
"H  c #DEAF38",
"J  c #DEAF39",
"K  c #DEAF3A",
"L  c #DEB03B",
"P  c #DEB13D",
"I  c #DFB13E",
"U  c #DFB13F",
"Y  c #E0A921",
"T  c #E0AA21",
"R  c #E1AA21",
"E  c #E1AB21",
"W  c #E2AB21",
"Q  c #E3AC21",
"!  c #E4AC21",
"~  c #DFB240",
"^  c #DFB341",
"/  c #E0B343",
"(  c #E0B444",
")  c #E0B446",
"_  c #E0B546",
"`  c #E1B649",
"'  c #E1B74D",
"]  c #E2B84F",
"[  c #E2B850",
"{  c #E2B951",
"}  c #E2B953",
"|  c #E2BA54",
" . c #E3BA54",
".. c #E3BB56",
"X. c #E3BC58",
"o. c #E4BC5A",
"O. c #E4BD5B",
"+. c #E4BD5C",
"@. c #E4BD5D",
"#. c #E4BE5C",
"$. c #E5BF60",
"%. c #E5BF61",
"&. c #E5C063",
"*. c #E6C166",
"=. c #E6C267",
"-. c #E6C268",
";. c #E6C36A",
":. c #E7C36B",
">. c #E7C36C",
",. c #E7C56F",
"<. c #E7C570",
"1. c #E7C671",
"2. c #E8C773",
"3. c #E8C877",
"4. c #E8C878",
"5. c #E9CA7C",
"6. c #EACB7E",
"7. c #EACB7F",
"8. c #EACC81",
"9. c #EBCD84",
"0. c #EBCE85",
"q. c #EBCE86",
"w. c #EBCF88",
"e. c #ECD18C",
"r. c #ECD18D",
"t. c #ECD18E",
"y. c #EDD392",
"u. c #EDD393",
"i. c #EDD495",
"p. c #EED495",
"a. c #EED596",
"s. c #EED597",
"d. c #EED69A",
"f. c #EED79B",
"g. c #EFD89F",
"h. c #F0DBA4",
"j. c #F0DCA7",
"k. c #F1DDAA",
"l. c #F1DDAB",
"z. c #F1DDAC",
"x. c #F1DEAC",
"c. c #F1DEAD",
"v. c #F1DEAE",
"b. c #F2DEAE",
"n. c #F2DFAF",
"m. c #F2DFB0",
"M. c #F2E0B1",
"N. c #F3E1B5",
"B. c #F3E2B7",
"V. c #F3E2B8",
"C. c #F4E3BA",
"Z. c #F4E4BC",
"A. c #F4E5BF",
"S. c #F5E5BF",
"D. c #F5E6C0",
"F. c #F5E6C1",
"G. c #F5E7C3",
"H. c #F5E7C5",
"J. c #F6E8C6",
"K. c #F6E8C7",
"L. c #F6E9C8",
"P. c #F6EACB",
"I. c #F7EBCC",
"U. c #F7EBCE",
"Y. c #F7ECCF",
"T. c #F8EDD2",
"R. c #F8EDD4",
"E. c #F8EED4",
"W. c #F8EED6",
"Q. c #F9EFD8",
"!. c #F9F0DA",
"~. c #F9F0DB",
"^. c #F9F1DC",
"/. c #F9F1DD",
"(. c #FAF2DE",
"). c #FAF2DF",
"_. c #FAF2E0",
"`. c #FAF3E2",
"'. c #FBF4E4",
"]. c #FBF6E7",
"[. c #FBF6E9",
"{. c #FCF6EA",
"}. c #FCF7EA",
"|. c #FCF7EC",
" X c #FCF8ED",
".X c #FCF8EE",
"XX c #FCF9F0",
"oX c #FDF9F0",
"OX c #FDF9F1",
"+X c #FDFAF3",
"@X c #FDFBF4",
"#X c #FDFBF5",
"$X c #FDFBF6",
"%X c #FEFCF7",
"&X c #FEFCF8",
"*X c #FEFDF9",
"=X c #FEFDFA",
"-X c #FEFDFB",
";X c #FEFEFC",
":X c #FFFEFC",
">X c #FFFEFD",
",X c #FFFEFE",
"<X c #FFFFFE",
"1X c white",
/* pixels */
"                                                            6 7 7 6                                                             ",
"                                                s i t i R Q Y t t Y Q R i t i s                                                 ",
"                                          g d W W z i q q q q q q q q q q i z W W d g                                           ",
"                                      s W R i q q q q q q q q q q q q q q q q q q i R W s                                       ",
"                                  g Q l q q q q q q q q q q q q q q q q q q q q q q q q l Q g                                   ",
"                              g Q s q q q q q q q q q q q q q q q q q q q q q q q q q q q q s Q g                               ",
"                          p j T q q q q q q q q q q q q q q q q q q q q q q q q q q q q q q q q T j p                           ",
"                        s Q t q q q q q q q q q q q q q q q 5 + O ; q q q q q q q q q q q q q q q t Q s                         ",
"                      a Q q q q q q q q q q q q q q q q q 5 n 8.w.o.: q q q q q q q q q q q q q q q q Q a                       ",
"                    f R q q q q q q q q q q q q q q q q q @ 1.1X1X).c 5 q q q q q q q q q q q q q q q q R f                     ",
"                  j T q q q q q q q q q q q q q q q q q 6 q U.1X1X1X:.& q q q q q q q q q q q q q q q q q T j                   ",
"                p R q q q q q q q q q q q q q q q q q q = +.<X1X1X1XK.4 6 q q q q q q q q q q q q q q q q q R p                 ",
"              e Q q q q q q q q q q q q q q q q q q q q ; C.1X1X1X1X;X| = q q q q q q q q q q q q q q q q q q Q e               ",
"            9 Q q q q q q q q q q q q q q q q q q q q ; ` *X1X1X1X1X1Xn.= q q q q q q q q q q q q q q q q q q q Q 9             ",
"            l t q q q q q q q q q q q q q q q q q q q # h.1X1X1X1X1X1X@X~ > q q q q q q q q q q q q q q q q q q t l             ",
"          r T q q q q q q q q q q q q q q q q q q q < J XX1X1X1X1X1X1X1Xa.O q q q q q q q q q q q q q q q q q q q T r           ",
"          Q q q q q q q q q q q q q q q q q q q q q O t.1X1X1X1X1X1X1X1X].C 4 q q q q q q q q q q q q q q q q q q q Q           ",
"        t s q q q q q q q q q q q q q q q q q q q 4 M '.1X1X1X1X1X1X1X1X1X5.+ q q q q q q q q q q q q q q q q q q q s t         ",
"        ! q q q q q q q q q q q q q q q q q q q q + 4.1X1X1X1X1X1X1X1X1X1XW.u 6 q q q q q q q q q q q q q q q q q q q !         ",
"      q k q q q q q q q q q q q q q q q q q q q 6 u R.1X1X1X1X1X1X1X1X1X1X1X&.* q q q q q q q q q q q q q q q q q q q k q       ",
"      W q q q q q q q q q q q q q q q q q q q q * &.1X1X1X1X1X1X1X1X1X1X1X1XA.> q q q q q q q q q q q q q q q q q q q q W       ",
"    q R q q q q q q q q q q q q q q q q q q q q > D.1X1X1X1X1X1X1X1X1X1X1X1X=X' ; q q q q q q q q q q q q q q q q q q q R q     ",
"    e i q q q q q q q q q q q q q q q q q q q ; ] -X1X1X1X1X1X1X1X1X1X1X1X1X1Xj.* q q q q q q q q q q q q q q q q q q q i e     ",
"    W q q q q q q q q q q q q q q q q q q q q * l.1X1X1X1X1X1X1X1X1X1X1X1X1X1XOXK , q q q q q q q q q q q q q q q q q q q W     ",
"  r Q q q q q q q q q q q q q q q q q q q q > I +X1X1X1X1X1X1X1X1X1X1X1X1X1X1X1Xr.O q q q q q q q q q q q q q q q q q q q Q 0   ",
"  w x q q q q q q q q q q q q q q q q q q q O i.1X1X1X1X1X1X1X1X1X1X1X1X1X1X1X1X`.m 4 q q q q q q q q q q q q q q q q q q x w   ",
"  q i q q q q q q q q q q q q q q q q q q 4 Z ].1X1X1X1XZ..X1X1X1X1X1X1X1X1X1X1X1X2.@ q q q q q q q q q q q q q q q q q q i q   ",
"  t q q q q q q q q q q q q q q q q q q q O 6.1X1X1X1X#XL v.1X1X1X1X1X1X1X1X1X1X1XY.q 6 q q q q q q q q q q q q q q q q q q t   ",
"  R q q q q q q q q q q q q q q q q q q 5 h Q.1X1X1X1Xm.o ..>X1X1X1X1X1X1X1X1X1X1X,XO.= q q q q q q q q q q q q q q q q q q E   ",
"  Q q q q q q q q q q q q q q q q q q q * -.1X1X1X1X;X} = 6 P.1X1X1X1X1X1X1X1X1X1X1XV.; q q q q q q q q q q q q q q q q q q Q   ",
"6 Y q q q q q q q q q q q q q q q q q q 4 J.1X1X1X1XH.< q @ <.1X1X1X1X1X1X1X1X1X1X1X&X) : q q q q q q q q q q q q q q q q q Y 6 ",
"0 w q q q q q q q q q q q q q q q q q =  .:X1X1X1X1X=.* q 4 n _.1X1X1X1X1X1X1X1X1X1X1Xg.+ q q q q q q q q q q q q q q q q q w q ",
"0 w q q q q q q q q q q q q q q q q q = M.1X1X1X1XT.1 * = = . 9.1X1X1X1X1X1X1X1X1X1X1X XF 1 q q q q q q q q q q q q q q q q t 3 ",
"6 Y q q q q q q q q q q q q q q q q : / $X1X1X1X1Xx.X.$.$.$.@.3.*X1X1X1X1X1X1X1X1X1X1X1X0.+ q q q q q q q q q q q q q q q q Y 6 ",
"  Q q q q q q q q q q q q q q q q q + f.1X1X1X1X1X1X1X1X1X1X1X1X1X1X1X1X1X1X1X1X1X1X1X1X/.v 5 q q q q q q q q q q q q q q q Q   ",
"  R q q q q q q q q q q q q q q q 1 D |.1X1X1X1X1X1X1X1X1X1X1X1X1X1X1X1X1X1X1X1X1X1X1X1X1X>.$ q q q q q q q q q q q q q q q E   ",
"  t q q q q q q q q q q q q q q q O 9.1X1X1X1X1X1X1X1X1X1X1X1X1X1X1X1X1X1X1X1X1X1X1X1X1X1XL.4 q q q q q q q q q q q q q q q i   ",
"  q i q q q q q q q q q q q q q 5 b (.1X1X1X1X1X1X1X1X1X1X1X1X1X1X1X1X1X1X1X1X1X1X1X1X1X1X:X .- q q q q q q q q q q q q q i q   ",
"  w x q q q q q q q q q q q q q @ ,.1X1X1X1X-XB.n.m.m.m.m.m.m.m.m.b.[.1X1X1X1X1X1X1X1X1X1X1Xm.= q q q q q q q q q q q q q x w   ",
"  r Q q q q q q q q q q q q q 6 6 I.1X1X1X1XS.+ * * * * * * * * * X 7.1X1X1X1X1X1X1X1X1X1X1X@X~ > q q q q q q q q q q q q Q 0   ",
"    W q q q q q q q q q q q q * #.<X1X1X1X<X%.* q q q q q q q q q 4 A {.1X1X1X1X1X1X1X1X1X1X1Xs.O q q q q q q q q q q q q W     ",
"    e i q q q q q q q q q q 6 < G.1X1X1X1XE.u 6 q q q q q q q q q q O d.1X1X1X1X1X1X1X1X1X1X1X}.S 1 q q q q q q q q q q i e     ",
"    0 R q q q q q q q q q q + *.<X1X1X1X1Xw.O q q q q q q q q q q q : ( %X1X1X1X1X1X1X1X1X1X1X1Xy.O q q q q q q q q q q R 0     ",
"      W q q q q q q q q q - N ^.1X1X1X1X1X..% q q q q q q q q q q q q : C.1X1X1X1X1X1X1X1X1X1X1XoXU - q q q q q q q q q W       ",
"      q k q q q q q 4 O * J F.1X1X1X1X1X1X8.q : * + 5 q q q q q q ; * X <.1X1X1X1X1X1X1X1X1X1X1X1XF.n + + 6 q q q q q k q       ",
"        ! q q q q 4 B e.N..X1X1X1X1X1X1X1X:X~.A.k.p.V 2 q q q q * ;.z.m.!.1X1X1X1X1X1X1X1X1X1X1X1X1X_.z.u.N 2 q q q q !         ",
"        t s q q q > _ 1X1X1X1X1X1X1X1X1X1X1X1X1X1X1X~ > q q q ; ;.=X1X1X1X1X1X1X1X1X1X1X1X1X1X1X1X1X1X1X<XP < q q q s t         ",
"          Q q q q > ^ ;X1X1X1X1X1X1X1X1X1X1X1X1X1X*XL > q q q $ c.1X1X1X1X1X1X1X1X1X1X1X1X1X1X1X1X1X1X1X#XH < q q q Q           ",
"          r T q q q 4 e.,X1X1X1X1X1X1X1X1X1X1X1X>Xq.1 q q q q , ~ ~.1X1X1X1X1X1X1X1X1X1X1X1X1X1X1X1X1X;X8.< q q q T r           ",
"            l t q q 6 4 { o.o.o.o.o.o.o.o.o.o.o.[ < 6 q q q q q ; G o.o.o.o.o.o.o.o.o.o.o.o.o.o.o.o.o.] , 6 q q t l             ",
"            9 Q q q q q ; = = = = = = = = = = = ; q q q q q q q q < = = = = = = = = = = = = = = = = = ; q q q q Q 9             ",
"              e Q q q q q q q q q q q q q q q q q q q q q q q q q q q q q q q q q q q q q q q q q q q q q q q Q e               ",
"                p R q q q q q q q q q q q q q q q q q q q q q q q q q q q q q q q q q q q q q q q q q q q q R p                 ",
"                  j T q q q q q q q q q q q q q q q q q q q q q q q q q q q q q q q q q q q q q q q q q q T j                   ",
"                    j R q q q q q q q q q q q q q q q q q q q q q q q q q q q q q q q q q q q q q q q q R j                     ",
"                      a Q q q q q q q q q q q q q q q q q q q q q q q q q q q q q q q q q q q q q q q Q a                       ",
"                        s Q t q q q q q q q q q q q q q q q q q q q q q q q q q q q q q q q q q q t Q s                         ",
"                          p l T q q q q q q q q q q q q q q q q q q q q q q q q q q q q q q q q T l p                           ",
"                              g Q s q q q q q q q q q q q q q q q q q q q q q q q q q q q q s Q g                               ",
"                                  g Q l q q q q q q q q q q q q q q q q q q q q q q q q l Q g                                   ",
"                                      s W R i q q q q q q q q q q q q q q q q q q i R W s                                       ",
"                                          a y W W z i q q q q q q q q q q i z W W y a                                           ",
"                                                s i t i R Q Y t t Y Q R i t i s                                                 ",
"                                                            8 7 7 8                                                             "
};
